<?xml version="1.0" encoding="UTF-8" standalone="no"?><!DOCTYPE svg PUBLIC "-//W3C//DTD SVG 1.1//EN" "http://www.w3.org/Graphics/SVG/1.1/DTD/svg11.dtd"><svg width="100%" height="100%" viewBox="0 0 502 477" version="1.1" xmlns="http://www.w3.org/2000/svg" xmlns:xlink="http://www.w3.org/1999/xlink" xml:space="preserve" xmlns:serif="http://www.serif.com/" style="fill-rule:evenodd;clip-rule:evenodd;stroke-linejoin:round;stroke-miterlimit:2;"><g><path id="路径" d="M241.7,169.1c-54.2,5 -96.6,50.5 -96.6,106c-0,58.8 47.7,106.4 106.4,106.4c-0,0 217.3,36.1 165.9,-227.7c29.6,49.6 56.6,99.5 56.6,99.5c-0,0 66,113.9 -7.2,183.5c-0,0 -42.5,39.8 -121.1,39.8l-73.9,0c-137.6,-24.2 -149.2,-146 -149.2,-146c-9.5,-156.6 119.1,-162 119.1,-162l-0,0.5Z" style="fill:url(#_Linear1);fill-rule:nonzero;"/><path id="路径1" serif:id="路径" d="M417.4,153.8c51.4,263.8 -165.9,227.7 -165.9,227.7c58.8,0 106.4,-47.6 106.4,-106.4c-0,-9.9 -1.4,-19.5 -3.9,-28.6l-0,-0.1c-1.1,-5.7 -17.6,-84.2 -97.7,-114.7c-36.5,-13.9 -76.8,-12.9 -113.4,0.6c-25.7,9.5 -55.9,26 -78.2,54.4l55.5,-97.7c12.7,-22.3 29.3,-42.1 49.5,-57.9c35.3,-27.4 90.9,-50.4 154.2,-2.9c-0,-0 19,10.8 57.9,68.7c11.2,16.7 23.7,36.8 35.6,56.9Z" style="fill:url(#_Linear2);fill-rule:nonzero;"/><path id="路径2" serif:id="路径" d="M122.6,330.6c-0,0 11.5,121.8 149.2,146l-118.4,0c-30.3,0 -60.3,-7 -87,-21.4c-35.6,-19.3 -71.8,-54.6 -65.2,-117.1c4.8,-45.5 60.6,-146.2 60.6,-146.2l2.9,-5.1l0,-0.1c22.2,-28.5 52.4,-44.9 78.2,-54.4c36.6,-13.5 76.9,-14.5 113.4,-0.6c80.1,30.6 96.6,109.1 97.7,114.7c-12.5,-44.8 -53.7,-77.7 -102.5,-77.7c-3.3,-0 -6.6,0.2 -9.8,0.4l0,-0.4c0,-0.1 -128.6,5.3 -119.1,161.9Z" style="fill:url(#_Linear3);fill-rule:nonzero;"/></g><defs><linearGradient id="_Linear1" x1="0" y1="0" x2="1" y2="0" gradientUnits="userSpaceOnUse" gradientTransform="matrix(379.236,0,0,379.236,122.119,315.224)"><stop offset="0" style="stop-color:#3668e7;stop-opacity:1"/><stop offset="0" style="stop-color:#3668e7;stop-opacity:1"/><stop offset="1" style="stop-color:#44bae1;stop-opacity:1"/></linearGradient><linearGradient id="_Linear2" x1="0" y1="0" x2="1" y2="0" gradientUnits="userSpaceOnUse" gradientTransform="matrix(360.548,0,0,360.548,64.7424,191.981)"><stop offset="0" style="stop-color:#44bce1;stop-opacity:1"/><stop offset="0.37" style="stop-color:#44bae1;stop-opacity:1"/><stop offset="0.55" style="stop-color:#43b2e2;stop-opacity:1"/><stop offset="0.68" style="stop-color:#41a5e2;stop-opacity:1"/><stop offset="0.8" style="stop-color:#3f93e4;stop-opacity:1"/><stop offset="0.9" style="stop-color:#3c7be5;stop-opacity:1"/><stop offset="0.99" style="stop-color:#385ee7;stop-opacity:1"/><stop offset="1" style="stop-color:#385be7;stop-opacity:1"/></linearGradient><linearGradient id="_Linear3" x1="0" y1="0" x2="1" y2="0" gradientUnits="userSpaceOnUse" gradientTransform="matrix(353.553,0,0,353.553,0.468,299.16)"><stop offset="0" style="stop-color:#44bce1;stop-opacity:1"/><stop offset="0.15" style="stop-color:#43b6e1;stop-opacity:1"/><stop offset="0.35" style="stop-color:#41a4e2;stop-opacity:1"/><stop offset="0.58" style="stop-color:#3e88e4;stop-opacity:1"/><stop offset="0.83" style="stop-color:#3960e7;stop-opacity:1"/><stop offset="0.86" style="stop-color:#385be7;stop-opacity:1"/><stop offset="1" style="stop-color:#385be7;stop-opacity:1"/></linearGradient></defs></svg>
