<svg xmlns="http://www.w3.org/2000/svg" viewBox="0 0 260 126">
    <g fill="#8993be">
        <path d="M51.064 41.386c7.962 0 13.268 1.468 15.921 4.408 2.652 2.94 3.283 7.986 1.896 15.136-1.45 7.446-4.238 12.761-8.375 15.945-4.136 3.185-10.43 4.775-18.879 4.775H28.879l7.825-40.264h14.36zM0 122.41h20.958l4.972-25.578h17.95c7.922 0 14.437-.83 19.554-2.496 5.115-1.662 9.763-4.453 13.948-8.37 3.513-3.227 6.353-6.788 8.53-10.682 2.173-3.89 3.718-8.186 4.631-12.885 2.217-11.404.543-20.287-5.016-26.65C79.97 29.386 71.124 26.204 59 26.204H18.7L0 122.41M105.935.626h20.792l-4.971 25.578h18.523c11.656 0 19.695 2.033 24.12 6.098 4.424 4.065 5.75 10.654 3.98 19.761l-8.7 44.77h-21.122l8.271-42.568c.942-4.842.597-8.145-1.039-9.907-1.634-1.761-5.112-2.642-10.432-2.642h-16.618l-10.71 55.116H87.234l18.7-96.206M214.643 41.386c7.962 0 13.268 1.468 15.921 4.408 2.652 2.94 3.284 7.986 1.896 15.136-1.45 7.446-4.238 12.761-8.375 15.945-4.136 3.185-10.43 4.775-18.879 4.775h-12.748l7.825-40.264h14.36zm-51.064 81.024h20.958l4.97-25.578h17.952c7.92 0 14.436-.83 19.553-2.496 5.115-1.662 9.764-4.453 13.949-8.37 3.512-3.227 6.353-6.788 8.53-10.682 2.173-3.89 3.718-8.186 4.63-12.885 2.218-11.404.545-20.287-5.014-26.65-5.56-6.363-14.404-9.545-26.528-9.545h-40.302L163.58 122.41" transform="translate(-548 -112) translate(548 112) translate(0 3)"/>
    </g>
</svg>
